# xmcd CD database file
#
# Track frame offsets:
#	150
#	22370
#	38109
#	60890
#	79702
#	103252
#	120896
#	145651
#	161115
#	183879
#	204197
#	224503
#	237841
#
# Disc length: 3384 seconds
#
# Revision: 1
# Processed by: cddbd v1.5.2PL0 Copyright (c) Steve Scherf et al.
# Submitted via: CDex 1.81
#
DISCID=aa0d360d
DTITLE=markusphilippe - saxnbass
DYEAR=2012
DGENRE=Jazz
TTITLE0=angel eyes
TTITLE1=hey joe
TTITLE2=invitation
TTITLE3=one for my baby
TTITLE4=moonglow
TTITLE5=cold cold heart
TTITLE6=the look of love
TTITLE7=pink panther
TTITLE8=body and soul
TTITLE9=do nothing till you hear from me
TTITLE10=round midnight
TTITLE11=wet willie
TTITLE12=mo better blues
EXTD=YEAR: 2012
EXTT0=
EXTT1=
EXTT2=
EXTT3=
EXTT4=
EXTT5=
EXTT6=
EXTT7=
EXTT8=
EXTT9=
EXTT10=
EXTT11=
EXTT12=
PLAYORDER=
